<?xml version="1.0" standalone="no"?>
<!DOCTYPE svg PUBLIC "-//W3C//DTD SVG 20010904//EN"
 "http://www.w3.org/TR/2001/REC-SVG-20010904/DTD/svg10.dtd">
<svg version="1.0" xmlns="http://www.w3.org/2000/svg"
 width="30.000000pt" height="30.000000pt" viewBox="0 0 30.000000 30.000000"
 preserveAspectRatio="xMidYMid meet">
<metadata>
Created by potrace 1.16, written by Peter Selinger 2001-2019
</metadata>
<g transform="translate(0.000000,30.000000) scale(0.025210,-0.027523)"
fill="#000000" stroke="none">
<path d="M356 962 c-20 -12 -63 -77 -138 -207 -90 -155 -109 -195 -105 -220 7
-39 199 -373 232 -402 25 -22 32 -23 250 -23 218 0 225 1 250 23 33 29 225
363 232 402 4 25 -15 65 -105 220 -75 130 -118 195 -138 207 -25 16 -57 18
-239 18 -182 0 -214 -2 -239 -18z m428 -213 c21 -25 26 -41 26 -85 l0 -54 -85
0 c-47 0 -85 -3 -85 -8 0 -4 38 -45 85 -92 58 -58 85 -92 85 -108 0 -34 -25
-77 -59 -101 -27 -19 -43 -21 -190 -21 -147 0 -163 2 -181 20 -25 25 -32 54
-28 111 l3 44 87 0 88 0 -92 92 c-89 89 -91 92 -85 130 4 26 17 48 42 71 l35
32 164 0 164 0 26 -31z"/>
</g>
</svg>
